# xmcd
#
# Track frame offsets: 
#        150
#        18936
#        32792
#        55556
#        73671
#        90169
#        111593
#        128556
#        139325
#        156136
#        170381
#        185448
#        204583
#        220236
#        233071
#        252273
#        271278
#        289876
#        310931
#        332850
#
# Disc length: 4707 seconds
#
# Revision: 0
# Processed by: cddbd v1.5.2PL0 Copyright (c) Steve Scherf et al.
# Submitted via: ExactAudioCopyFreeDBPlugin 1.0
#
DISCID=21126114
DTITLE=Johnny Adams - The Soul of New Orleans
DYEAR=2011
DGENRE=R&B
TTITLE0=After All the Good Is Gone
TTITLE1=Chasing Rainbows
TTITLE2=I'll Never Fall In Love Again
TTITLE3=Just My Imagination
TTITLE4=The Best of Luck To You
TTITLE5=Spanish Harlem
TTITLE6=Hell Yes I Cheated
TTITLE7=I Live My Whole World At Night
TTITLE8=Don't Let The Greek Grass Fool You
TTITLE9=Love Letters
TTITLE10=Cry, Cry Darling
TTITLE11=Selfish
TTITLE12=Share Your Love With Me
TTITLE13=(There's) No Getting Over Me
TTITLE14=I Only Want To Be With You
TTITLE15=Give Me A Chance
TTITLE16=A Shoulder To Cry On
TTITLE17=One Fine Day
TTITLE18=Who Will The Next Fool Be
TTITLE19=I Believe In You
EXTD=
EXTT0=
EXTT1=
EXTT2=
EXTT3=
EXTT4=
EXTT5=
EXTT6=
EXTT7=
EXTT8=
EXTT9=
EXTT10=
EXTT11=
EXTT12=
EXTT13=
EXTT14=
EXTT15=
EXTT16=
EXTT17=
EXTT18=
EXTT19=
PLAYORDER=
